<?xml version="1.0" encoding="UTF-8"?>
<svg id="Ebene_1" data-name="Ebene 1" xmlns="http://www.w3.org/2000/svg" viewBox="0 0 236.77 51.67">
  <path d="M93.92,34.23v6.84c0,6.36-6.49,10.6-16.82,10.6-14.22,0-25.57-7.93-25.57-25.84S62.74.06,76.69.06c10.25,0,17.23,4.24,17.23,10.6v6.84c0,2.12-.89,3.14-2.94,3.14-3.83,0-5.67-3.49-12.58-3.49-4.38,0-7.04,3.28-7.04,8.68s2.6,8.75,7.04,8.75c6.9,0,8.75-3.49,12.58-3.49,2.05,0,2.94,1.03,2.94,3.14Z"/>
  <path d="M138.47,34.23v6.84c0,6.36-6.49,10.6-16.82,10.6-14.22,0-25.57-7.93-25.57-25.84S107.3.06,121.25.06c10.25,0,17.23,4.24,17.23,10.6v6.84c0,2.12-.89,3.14-2.94,3.14-3.83,0-5.67-3.49-12.58-3.49-4.38,0-7.04,3.28-7.04,8.68s2.6,8.75,7.04,8.75c6.9,0,8.75-3.49,12.58-3.49,2.05,0,2.94,1.03,2.94,3.14Z"/>
  <path d="M153.84,19.95c0-1.44-.68-2.12-2.12-2.12h-7.31c-2.53,0-3.76-1.23-3.76-3.76V4.5c0-2.53,1.23-3.76,3.76-3.76h38.69c2.53,0,3.76,1.23,3.76,3.76v9.57c0,2.53-1.23,3.76-3.76,3.76h-7.31c-1.44,0-2.12.68-2.12,2.12v27.28c0,2.53-1.23,3.76-3.76,3.76h-12.3c-2.53,0-3.76-1.23-3.76-3.76v-27.28Z"/>
  <path d="M24.75.06C11.14.06,0,7.92,0,25.83s11.14,25.84,24.75,25.84,24.68-7.93,24.68-25.84S38.35.06,24.75.06ZM24.66,33.12c-8.93,0-12.89-3.25-12.89-7.31,0-2.26,1.29-4.28,4.05-5.6,0,.13-.02.25-.02.38,0,3.23,2.62,5.84,5.84,5.84s5.84-2.62,5.84-5.84c0-.66-.11-1.29-.32-1.89,7.26.55,10.48,3.54,10.48,7.11,0,4.06-3.96,7.31-12.99,7.31Z"/>
  <path d="M212.1,0c-13.6,0-24.75,7.86-24.75,25.77s11.14,25.84,24.75,25.84,24.68-7.93,24.68-25.84S225.7,0,212.1,0ZM212.01,38.74c-3.96,0-7.2-3.96-7.2-12.89s3.25-12.99,7.2-12.99,7.31,3.96,7.31,12.99-3.25,12.89-7.31,12.89Z"/>
</svg>